<?xml version="1.0" encoding="utf-8"?>
<!-- Generator: Adobe Illustrator 28.1.0, SVG Export Plug-In . SVG Version: 6.00 Build 0)  -->
<svg version="1.1" id="Layer_1" xmlns="http://www.w3.org/2000/svg" xmlns:xlink="http://www.w3.org/1999/xlink" x="0px" y="0px"
	 viewBox="0 0 1920 1080" style="enable-background:new 0 0 1920 1080;" xml:space="preserve">
<style type="text/css">
	.st0{fill:#FFFFFF;}
</style>
<g>
	<g>
		<circle class="st0" cx="685.23" cy="485.8" r="28.35"/>
		<path class="st0" d="M753.28,531.15h-136.1c-13.14,0-22.76,12.57-19.11,25.2c10.92,37.84,45.81,65.51,87.16,65.51
			c41.35,0,76.24-27.67,87.16-65.51C776.03,543.73,766.42,531.15,753.28,531.15z M685.23,604.84c-15.66,0-28.35-12.69-28.35-28.35
			s12.69-28.35,28.35-28.35c15.66,0,28.35,12.69,28.35,28.35S700.88,604.84,685.23,604.84z"/>
	</g>
	<g>
		<path class="st0" d="M945.25,500.4H900.2v118.62h-22.32V500.4h-45.26v-20.27h112.63V500.4z"/>
		<path class="st0" d="M926.02,568.21c0-30.72,20.48-54.06,50.58-54.06c34.2,0,49.15,26.62,46.08,58.98h-76.18
			c2.05,18.43,14.34,30.1,36.45,30.1c14.54,0,28.46-6.35,37.07-15.97v20.68c-7.99,7.99-22.53,13.93-40.34,13.93
			C947.52,621.86,926.02,600.15,926.02,568.21z M1000.97,557.15c-0.82-13.11-10.24-24.98-25.6-24.98s-25.39,8.4-28.26,24.98H1000.97
			z"/>
		<path class="st0" d="M1066.12,488.63v28.35h37.68v17.82h-37.68v44.27c0,15.97,8.81,23.96,19.86,23.96
			c6.96,0,12.29-1.64,17.82-5.12v18.84c-7.58,3.69-14.75,5.12-21.09,5.12c-22.12,0-38.09-14.13-38.09-41.78V534.8h-17.61v-17.82
			h17.61v-28.35H1066.12z"/>
		<path class="st0" d="M1107.58,568c0-30.51,24.16-53.86,55.09-53.86s55.09,23.34,55.09,53.86c0,30.31-24.16,53.86-55.09,53.86
			S1107.58,598.31,1107.58,568z M1162.66,602.41c19.05,0,33.38-14.74,33.38-34.4c0-19.86-14.34-34.4-33.38-34.4
			c-18.84,0-33.38,14.54-33.38,34.4C1129.29,587.66,1143.82,602.41,1162.66,602.41z"/>
		<path class="st0" d="M1251.51,536.26c6.14-13.72,18.43-22.12,33.17-22.12c24.78,0,41.16,17.41,41.16,45.05v59.83h-21.3v-57.17
			c0-17-10.44-28.26-26.01-28.26c-15.77,0-27.03,13.93-27.03,32.36v53.07h-21.3V516.98h21.3V536.26z"/>
	</g>
</g>
</svg>
